<?xml version="1.0" standalone="no"?>
<!DOCTYPE svg PUBLIC "-//W3C//DTD SVG 20010904//EN"
 "http://www.w3.org/TR/2001/REC-SVG-20010904/DTD/svg10.dtd">
<svg version="1.0" xmlns="http://www.w3.org/2000/svg"
 width="600.000000pt" height="600.000000pt" viewBox="0 0 600.000000 600.000000"
 preserveAspectRatio="xMidYMid meet">
<metadata>
Created by potrace 1.11, written by Peter Selinger 2001-2013
</metadata>
<g transform="translate(0.000000,600.000000) scale(0.100000,-0.100000)"
fill="#000000" stroke="none">
<path d="M2605 5986 c-163 -27 -303 -73 -437 -144 -49 -25 -88 -49 -88 -52 0
-4 -26 -1 -57 6 -189 44 -374 18 -533 -76 -137 -81 -291 -252 -370 -412 -118
-241 -105 -475 36 -669 68 -93 92 -189 63 -252 -6 -13 -73 -83 -149 -155 -279
-266 -362 -411 -281 -493 40 -39 76 -38 140 6 97 67 118 38 46 -65 -56 -79
-61 -126 -18 -160 32 -25 69 -24 203 5 51 11 96 16 113 11 42 -10 77 -49 77
-86 0 -38 -9 -57 -71 -141 -53 -72 -60 -106 -29 -134 17 -16 34 -17 179 -10
l160 7 32 -31 c37 -38 36 -51 -22 -163 -45 -88 -48 -119 -17 -148 25 -23 65
-25 170 -9 85 13 128 6 168 -27 43 -37 40 -75 -15 -180 -50 -94 -52 -105 -29
-128 24 -25 58 -19 144 24 88 44 134 51 150 21 14 -27 12 -95 -5 -166 -22 -93
-20 -141 9 -160 28 -18 56 -10 104 30 37 31 199 232 260 323 24 34 47 62 52
62 5 0 12 -12 16 -27 26 -114 41 -159 79 -238 24 -49 66 -120 94 -157 28 -37
47 -70 41 -73 -22 -13 -106 -164 -154 -277 -30 -68 -91 -222 -136 -343 -138
-370 -226 -533 -319 -596 -41 -27 -52 -30 -96 -25 -28 3 -71 13 -97 21 l-46
16 18 52 c10 29 33 84 51 122 44 96 44 145 -2 189 -53 52 -76 53 -165 5 -85
-44 -117 -46 -135 -5 -8 17 -7 36 5 76 23 79 21 132 -7 158 -44 41 -86 28
-191 -62 -72 -61 -107 -71 -127 -34 -6 12 -15 80 -19 150 -6 113 -10 132 -28
151 -35 34 -67 15 -134 -80 -65 -92 -90 -112 -115 -91 -12 10 -14 25 -9 78 21
204 21 206 -7 234 -49 49 -82 32 -163 -86 -40 -58 -68 -66 -104 -29 -20 19
-32 48 -44 101 -26 118 -33 130 -72 130 -30 0 -39 -7 -67 -47 -49 -73 -82
-103 -112 -103 -39 0 -81 48 -100 113 -19 66 -43 87 -98 87 -29 0 -46 -7 -67
-28 -31 -31 -43 -77 -59 -229 -11 -104 -17 -118 -112 -261 -81 -122 -109 -201
-109 -309 0 -109 15 -149 80 -213 87 -87 150 -114 605 -259 225 -71 356 -134
775 -371 570 -322 765 -400 868 -346 130 68 274 360 469 946 77 231 97 303
104 380 14 134 17 136 190 142 l133 5 100 -48 c224 -106 432 -158 666 -166
474 -16 859 155 1266 561 416 417 647 789 724 1167 38 187 25 437 -36 647 -69
240 -274 655 -463 936 -116 175 -354 415 -598 605 -518 404 -1096 679 -1648
782 -142 27 -507 35 -630 15z m-625 -389 c134 -64 250 -197 305 -347 36 -100
45 -254 21 -350 -39 -152 -100 -230 -264 -336 -166 -109 -185 -117 -277 -122
-87 -4 -159 15 -221 60 -81 59 -210 179 -254 236 -113 146 -129 318 -46 497
71 153 248 301 451 377 75 28 211 21 285 -15z m1576 -1678 c202 -37 471 -220
535 -364 69 -157 62 -357 -20 -530 -29 -61 -60 -104 -132 -182 -110 -118 -153
-154 -231 -194 -82 -42 -159 -59 -260 -59 -77 0 -106 6 -216 41 -165 54 -234
91 -307 165 -205 207 -205 540 0 829 69 96 185 199 283 249 51 26 171 55 233
55 30 1 82 -4 115 -10z m-1178 -48 c11 -78 -146 -384 -232 -452 -54 -42 -96
-6 -96 84 0 56 -19 71 -53 39 -12 -11 -34 -25 -49 -31 -79 -30 -133 69 -63
115 39 26 32 57 -25 106 -27 24 -50 46 -50 50 0 15 41 27 180 52 80 14 181 35
225 45 44 11 98 19 120 18 34 -2 41 -6 43 -26z"/>
<path d="M1653 5319 c-76 -22 -100 -121 -42 -178 84 -84 224 10 179 120 -21
51 -78 74 -137 58z"/>
<path d="M3324 3009 c-23 -24 -29 -39 -29 -75 0 -39 5 -50 33 -75 46 -41 111
-41 153 0 24 24 29 38 29 76 0 38 -5 52 -29 76 -25 24 -38 29 -78 29 -42 0
-54 -5 -79 -31z"/>
</g>
</svg>
